<?xml version="1.0" encoding="UTF-8" standalone="no"?>
<!-- Created with Inkscape (http://www.inkscape.org/) -->

<svg
   width="250mm"
   height="100mm"
   viewBox="0 0 250 99.999995"
   version="1.1"
   id="svg1"
   xmlns="http://www.w3.org/2000/svg"
   xmlns:svg="http://www.w3.org/2000/svg">
  <defs
     id="defs1" />
  <g
     id="layer1">
    <path
       style="fill:#820083;fill-opacity:1;stroke-width:0.264583"
       d="m 77.018633,-7.4534161 c 22.939777,5.3044006 46.981057,0.9987641 70.414617,3.2875112 7.59497,0.7417982 15.28662,2.2387 21.89441,6.0559006 4.45288,2.5723478 8.39868,6.2893491 10.40372,11.0248443 0.75619,1.785964 1.22396,3.678603 1.85746,5.511678 0.63351,1.833074 1.4593,3.646782 2.80093,5.047328 1.00959,1.053926 2.27831,1.83548 3.62002,2.409788 1.34172,0.574309 2.75988,0.949141 4.18369,1.269777 2.84761,0.641274 5.80377,1.0962 8.34536,2.531614 2.9413,1.661154 5.0581,4.505161 6.52387,7.548541 1.46578,3.043381 2.35581,6.324269 3.41402,9.532205 1.18536,3.5934 2.65232,7.214744 5.2795,9.937888 1.77504,1.839873 3.99287,3.177901 6.15675,4.539347 2.16388,1.361445 4.33599,2.798907 5.95505,4.777423 1.44516,1.765996 2.38945,3.897284 3.02667,6.08844 0.63723,2.191155 0.98135,4.454901 1.33665,6.709004 0.3553,2.254103 0.72562,4.515523 1.41258,6.691595 0.68697,2.176073 1.70623,4.27845 3.23031,5.976799 2.14439,2.389577 5.12141,3.822005 7.91665,5.401591 1.39763,0.789793 2.77331,1.634055 3.99822,2.671701 1.22491,1.037651 2.30017,2.279321 2.99196,3.727951 1.06904,2.2386 1.15524,4.88189 0.46186,7.26379 -0.69337,2.3819 -2.12758,4.50916 -3.91136,6.23321 -3.56755,3.44809 -8.36491,5.25667 -13.01012,6.99989 -27.82311,10.44128 -56.01121,21.85751 -85.70782,22.97867 -14.8483,0.56059 -29.93708,-1.55294 -43.57353,-7.45495 -13.636448,-5.902 -25.756964,-15.74165 -33.214015,-28.59384 -1.438044,-2.47846 -2.729494,-5.09723 -4.736023,-7.14285 C 65.189643,100.6145 61.096967,99.163418 57.065216,98.214285 50.898594,96.762572 44.37593,96.21154 38.819875,93.167702 34.866874,91.002084 31.533402,87.511205 30.124222,83.229811 29.69762,81.933702 29.449866,80.586836 29.120563,79.262658 28.791259,77.93848 28.371749,76.617388 27.63975,75.465839 26.344536,73.428265 24.2033,72.107716 22.119574,70.888138 20.035847,69.66856 17.868668,68.42021 16.459627,66.459626 15.44002,65.040912 14.891155,63.345951 14.379465,61.675466 13.867774,60.004981 13.366445,58.302349 12.42236,56.832298 11.446783,55.31321 10.045926,54.118617 8.6034319,53.03299 7.1609373,51.947363 5.6489156,50.941056 4.3478262,49.68944 1.5694493,47.016709 -0.090063,43.366875 -1.0870179,39.642771 -2.0839728,35.918667 -2.4772381,32.064558 -3.10559,28.26087 -3.9439602,23.18585 -5.2049068,18.180254 -5.822346,13.073645 -6.4397852,7.9670359 -6.3880072,2.670372 -4.6583851,-2.173913 c 2.5509632,-7.1446777 8.646897,-12.698819 15.6571161,-15.598934 7.010218,-2.900115 14.852685,-3.341641 22.376277,-2.367278 15.047186,1.948727 28.860834,9.268461 43.643625,12.6867089 z"
       id="path11"
       transform="translate(-0.43919676)" />
  </g>
</svg>
