<?xml version="1.0" encoding="UTF-8" standalone="no"?>
<!-- Created with Inkscape (http://www.inkscape.org/) -->

<svg
   width="200mm"
   height="100mm"
   viewBox="0 0 200 99.999995"
   version="1.1"
   id="svg1"
   xmlns="http://www.w3.org/2000/svg"
   xmlns:svg="http://www.w3.org/2000/svg">
  <defs
     id="defs1" />
  <g
     id="layer1">
    <path
       style="fill:#820083;fill-opacity:1;stroke-width:0.264583"
       d="m 77.018633,-7.4534161 c 7.544016,1.8374922 15.286972,2.6851476 22.981367,3.726708 7.55161,1.022232 15.2647,2.2984146 21.89441,6.0559006 4.4763,2.5370072 8.40701,6.2828208 10.40372,11.0248445 0.75269,1.787566 1.21982,3.680329 1.85398,5.513297 0.63416,1.832967 1.46179,3.645962 2.80441,5.045709 1.01025,1.053227 2.27916,1.834235 3.62093,2.408277 1.34178,0.574042 2.75987,0.948867 4.18359,1.269654 2.84744,0.641575 5.8033,1.09742 8.34455,2.533248 2.94095,1.661662 5.05755,4.5056 6.5234,7.548884 1.46584,3.043285 2.35615,6.324028 3.41449,9.531862 1.18553,3.59333 2.65246,7.214624 5.2795,9.937888 1.77494,1.839955 3.99265,3.178161 6.15648,4.539665 2.16382,1.361505 4.33592,2.798872 5.95532,4.777105 1.44541,1.765697 2.39031,3.896599 3.02819,6.087491 0.63788,2.190892 0.9827,4.454465 1.33838,6.708437 0.35569,2.253971 0.72609,4.515266 1.41255,6.691425 0.68646,2.176159 1.70457,4.27883 3.22709,5.978485 2.14191,2.391106 5.11611,3.827613 7.91008,5.408398 1.39699,0.790392 2.77234,1.634484 3.99796,2.670898 1.22562,1.03641 2.30267,2.27567 2.99879,3.72195 1.07784,2.23935 1.17527,4.88657 0.49017,7.27551 -0.6851,2.38894 -2.11432,4.52583 -3.89788,6.25653 -3.5671,3.46142 -8.3798,5.26868 -13.05191,6.96485 -19.76472,7.17539 -40.16446,14.07393 -61.18891,13.7527 -10.51223,-0.16061 -21.07743,-2.18127 -30.579649,-6.68022 -9.502215,-4.49896 -17.904003,-11.55488 -23.293556,-20.5818 -1.468516,-2.45961 -2.738282,-5.08974 -4.736023,-7.14285 C 65.200777,100.60207 61.099244,99.158565 57.065216,98.214285 50.896603,96.770344 44.3752,96.21321 38.819875,93.167702 34.867579,91.000997 31.533638,87.511025 30.124222,83.229811 29.69754,81.93373 29.449771,80.586865 29.120481,79.262686 28.791191,77.938506 28.371722,76.617403 27.63975,75.465839 26.344581,73.428235 24.203346,72.107667 22.119615,70.888094 20.035884,69.668521 17.868691,68.420195 16.459627,66.459626 15.440004,65.040924 14.891119,63.345969 14.379424,61.675486 13.867728,60.005002 13.366411,58.302371 12.42236,56.832298 11.446818,55.313186 10.04601,54.118534 8.60353,53.032884 7.1610501,51.947234 5.6490211,50.94095 4.3478262,49.68944 1.5691623,47.016877 -0.09117733,43.367358 -1.088502,39.64326 -2.0858267,35.919162 -2.4789474,32.064931 -3.10559,28.26087 -3.9415528,23.186122 -5.197223,18.180083 -5.8126061,13.07389 -6.4279893,7.9676974 -6.3777994,2.6733046 -4.6583851,-2.173913 c 2.5396026,-7.1594185 8.6193525,-12.742396 15.6267771,-15.67546 7.007424,-2.933063 14.859602,-3.408631 22.395657,-2.452219 15.072111,1.912823 28.893139,9.252738 43.654584,12.8481759 z"
       id="path11" />
  </g>
</svg>
