<?xml version="1.0" encoding="UTF-8" standalone="no"?>
<!-- Created with Inkscape (http://www.inkscape.org/) -->

<svg
   width="100mm"
   height="100mm"
   viewBox="0 0 100 100"
   version="1.1"
   id="svg1"
   inkscape:export-filename="bitmap.svg"
   inkscape:export-xdpi="96"
   inkscape:export-ydpi="96"
   xmlns:inkscape="http://www.inkscape.org/namespaces/inkscape"
   xmlns:sodipodi="http://sodipodi.sourceforge.net/DTD/sodipodi-0.dtd"
   xmlns="http://www.w3.org/2000/svg"
   xmlns:svg="http://www.w3.org/2000/svg">
  <sodipodi:namedview
     id="namedview1"
     pagecolor="#505050"
     bordercolor="#eeeeee"
     borderopacity="1"
     inkscape:showpageshadow="0"
     inkscape:pageopacity="0"
     inkscape:pagecheckerboard="0"
     inkscape:deskcolor="#505050"
     inkscape:document-units="mm">
    <inkscape:page
       x="0"
       y="0"
       width="100"
       height="100"
       id="page2"
       margin="0"
       bleed="0" />
  </sodipodi:namedview>
  <defs
     id="defs1">
    <inkscape:path-effect
       effect="spiro"
       id="path-effect2"
       is_visible="true"
       lpeversion="1" />
  </defs>
  <g
     inkscape:label="Laag 1"
     inkscape:groupmode="layer"
     id="layer1">
    <path
       style="fill:#5c0064;fill-opacity:1;stroke-width:0.264583"
       d="m 53.021864,0.32449121 c 0.950308,0.0682671 1.904268,0.11840292 2.855521,0.0648983 0.583983,-0.0328469 1.168522,-0.10472407 1.752061,-0.064775 0.58354,0.0399491 1.178772,0.20305729 1.622649,0.58396091 0.209929,0.18014565 0.378726,0.40223645 0.556569,0.61411885 0.177844,0.2118824 0.370463,0.418489 0.611598,0.5540495 0.194461,0.1093214 0.414809,0.1684792 0.637012,0.1882757 0.222203,0.019796 0.446583,0.0011 0.666164,-0.038272 0.439161,-0.078752 0.859276,-0.2390578 1.292755,-0.3446987 0.938378,-0.2286868 1.937212,-0.1949331 2.862664,0.081453 0.925452,0.2763864 1.775993,0.7931981 2.458993,1.4761046 0.59623,0.596148 1.064914,1.3133213 1.687354,1.8820489 0.74884,0.68422 1.69245,1.1257084 2.66454,1.4154665 0.972089,0.2897581 1.979946,0.4364037 2.981607,0.5963791 1.10083,0.1758136 2.207662,0.3711617 3.245919,0.7770665 1.038258,0.4059048 2.014368,1.0397438 2.659822,1.9486591 0.735488,1.0357 0.988481,2.338837 1.622454,3.439607 0.880784,1.529309 2.416722,2.546955 3.909655,3.488081 1.492933,0.941126 3.047943,1.910259 4.007932,3.391133 0.911915,1.406716 1.185062,3.120085 1.443473,4.776485 0.258412,1.656401 0.5449,3.3701 1.476948,4.763558 0.667882,0.998517 1.622336,1.762422 2.507012,2.575103 0.884676,0.812681 1.738083,1.731111 2.100762,2.876348 0.340944,1.076604 0.212353,2.243893 -0.012,3.350683 -0.22435,1.10679 -0.5422,2.204931 -0.572087,3.333835 -0.05359,2.024388 0.818486,3.957515 1.038371,5.97064 0.32811,3.003972 -0.803555,5.956194 -1.168167,8.955955 -0.374075,3.077616 0.06139,6.223374 -0.454287,9.280451 -0.492976,2.922473 -1.869466,5.688072 -3.893897,7.852685 -1.237389,1.323072 -2.696657,2.41433 -4.105507,3.553099 -1.408849,1.138768 -2.790434,2.349343 -3.812078,3.845302 -0.90307,1.322335 -1.496734,2.826025 -2.115636,4.302867 -0.618902,1.476843 -1.282335,2.960394 -2.297444,4.198804 -1.101596,1.343921 -2.580057,2.345198 -4.165502,3.056534 -1.585446,0.711336 -3.281224,1.145351 -4.98515,1.486341 -3.462428,0.692902 -7.05621,1.033315 -10.253921,2.531033 -1.391134,0.651568 -2.710682,1.522833 -4.218387,1.81715 -1.485788,0.290039 -3.019005,-0.0085 -4.489859,-0.366623 -1.470854,-0.358159 -2.952884,-0.779891 -4.466099,-0.736647 -2.36007,0.06744 -4.583378,1.26026 -6.944111,1.297964 -1.93768,0.03095 -3.801087,-0.720079 -5.528606,-1.598283 C 34.473446,96.623127 32.803072,95.598897 30.956461,95.011027 29.42098,94.522206 27.80624,94.349117 26.222942,94.049422 24.639644,93.749727 23.040686,93.302689 21.740911,92.3502 20.516579,91.452996 19.639703,90.16857 18.832392,88.883187 18.025081,87.597803 17.24918,86.268233 16.159662,85.211392 15.008321,84.094582 13.565095,83.338493 12.174103,82.539751 10.78311,81.741009 9.390855,80.854653 8.4367716,79.565245 7.4126418,78.181171 6.9830202,76.455461 6.638785,74.768451 6.2945498,73.081441 6.0016462,71.349963 5.1918594,69.830507 4.2552527,68.07309 2.6710007,66.688469 1.9469473,64.833343 1.4751277,63.624475 1.4040138,62.297206 1.4426804,61.000102 1.481347,59.702997 1.6240422,58.406428 1.5575578,57.110452 1.4696211,55.396307 1.0167115,53.6862 1.2330666,51.983491 1.3731949,50.880685 1.7885646,49.834984 2.1705312,48.790992 2.5524977,47.747 2.9082308,46.670173 2.9204208,45.558567 2.9352891,44.202732 2.4392887,42.897732 1.9109166,41.649 1.3825445,40.400268 0.80738654,39.14429 0.64898243,37.797658 0.46864382,36.264556 0.84435924,34.713306 1.4152994,33.279098 1.9862395,31.84489 2.7505362,30.496566 3.395859,29.094252 c 1.1490027,-2.496831 1.956798,-5.224773 3.762979,-7.296508 1.6506764,-1.893367 3.973454,-3.047037 5.919808,-4.634889 1.864651,-1.521198 3.368008,-3.427934 4.969375,-5.224206 1.601367,-1.796272 3.360839,-3.528254 5.539432,-4.5503611 2.868082,-1.3455873 6.188102,-1.3388935 9.177999,-2.3862792 3.162767,-1.1079438 5.843284,-3.3547782 9.040325,-4.35954889 3.592021,-1.12890569 7.460523,-0.58775623 11.216087,-0.3179686 z"
       id="path2"
       inkscape:path-effect="#path-effect2"
       inkscape:original-d="m 53.021864,0.32449121 c 3.738695,-0.10598954 1.903683,0.086531 2.855521,0.0648983 0.951841,-0.0216329 2.27144,0.38938945 3.37471,0.51918594 1.10327,0.12979645 0.822045,0.77877895 1.168167,1.16816835 0.346126,0.3893895 1.64409,-0.173062 2.595931,-0.1946948 0.951841,-0.021633 3.591036,1.0383719 5.321657,1.5575579 1.730618,0.5191861 1.124902,1.2546994 1.687354,1.8820489 0.562451,0.6273498 3.764097,1.3412303 5.646147,2.0118456 1.882047,0.6706151 3.937159,1.8171507 5.905741,2.7257256 1.968579,0.908576 1.081635,2.293072 1.622454,3.439607 0.540819,1.146536 5.27839,4.586143 7.917587,6.879214 2.639195,2.293071 1.946947,6.360029 2.920421,9.540043 0.973473,3.180014 3.071849,3.677565 4.607774,5.451451 1.535922,1.773886 -0.38939,4.369816 -0.584084,6.684518 -0.194696,2.314704 0.692248,4.023693 1.038371,5.97064 0.346125,1.946947 -0.778777,5.970638 -1.168167,8.955955 -0.38939,2.985321 -0.346126,6.186967 -0.454287,9.280451 -0.108165,3.093482 -2.574298,5.27839 -3.893897,7.852685 -1.319596,2.574298 -5.300022,4.889003 -7.917585,7.398401 -2.617562,2.509398 -2.898788,5.66778 -4.41308,8.501671 -1.514293,2.833888 -6.100435,3.028585 -9.150652,4.542875 -3.050217,1.514292 -6.879214,1.687356 -10.253921,2.531033 -3.374711,0.843677 -2.768992,1.211434 -4.218387,1.81715 -1.449393,0.605716 -5.970638,-0.735512 -8.955958,-1.10327 -2.985318,-0.367758 -4.672672,0.822045 -6.944111,1.297964 -2.271438,0.475922 -7.138808,-2.68246 -10.773109,-4.088588 -3.6343,-1.406128 -6.122067,-1.773886 -9.21555,-2.660827 C 18.647428,91.463256 17.998446,87.590994 16.159662,85.211392 14.320879,82.831791 10.967803,81.447295 8.4367716,79.565245 5.9057402,77.683195 6.3167622,73.032156 5.1918594,69.830507 4.0669564,66.628861 3.0285846,66.585596 1.9469473,64.833343 0.86530989,63.081092 1.6440888,59.598218 1.5575578,57.110452 1.4710268,54.622686 1.3844958,53.735745 1.2330666,51.983491 1.0816374,50.23124 2.401235,47.656943 2.9204208,45.558567 3.4396068,43.460191 1.3628631,40.458487 0.64898243,37.797658 -0.06489824,35.13683 2.4802335,31.964794 3.395859,29.094252 4.3114846,26.223709 5.9351049,24.229913 7.158838,21.797744 8.3825709,19.365575 11.04419,18.677225 13.078646,17.162855 15.113102,15.648486 20.115111,10.646477 23.587453,7.3882879 27.059797,4.130099 29.706117,5.7974351 32.765452,5.0020087 35.824784,4.2065821 38.792335,2.1262361 41.805777,0.64245981 44.81922,-0.84131644 49.28317,0.43048076 53.021864,0.32449121 Z"
       transform="matrix(1.0146604,0,0,1,-0.61228917,0.04425907)" />
  </g>
</svg>
