<?xml version="1.0" encoding="UTF-8" standalone="no"?>
<!-- Created with Inkscape (http://www.inkscape.org/) -->

<svg
   width="300mm"
   height="100mm"
   viewBox="0 0 300 99.999991"
   version="1.1"
   id="svg1"
   xmlns="http://www.w3.org/2000/svg"
   xmlns:svg="http://www.w3.org/2000/svg">
  <defs
     id="defs1" />
  <g
     id="layer1"
     transform="matrix(0.87710229,0,0,0.83980807,31.004957,-4.0907524)">
    <path
       style="fill:#820083;fill-opacity:1;stroke-width:0.264583"
       d="m 206.1922,8.3798494 c 4.45368,2.5711496 8.39897,6.2891266 10.40372,11.0248446 0.75607,1.786019 1.22381,3.678663 1.85734,5.511734 0.63353,1.833071 1.45939,3.646755 2.80105,5.047272 1.00961,1.053901 2.27834,1.835434 3.62006,2.409729 1.34172,0.574296 2.75988,0.949125 4.18368,1.269765 2.84761,0.64128 5.80376,1.096241 8.34533,2.531685 2.94127,1.661187 5.05803,4.505214 6.52379,7.548593 1.46576,3.043378 2.35581,6.324252 3.4141,9.532153 1.18545,3.593354 2.65253,7.214556 5.2795,9.937888 1.77489,1.839995 3.99247,3.178359 6.15625,4.539927 2.16378,1.361569 4.33586,2.798867 5.95555,4.776843 1.44564,1.765423 2.3911,3.895962 3.0296,6.086605 0.6385,2.190643 0.98397,4.454052 1.34003,6.707898 0.35606,2.253846 0.72654,4.515022 1.41253,6.691261 0.68599,2.176239 1.70301,4.279188 3.22405,5.980078 2.13957,2.392545 5.11108,3.832915 7.90386,5.414835 1.39639,0.79096 2.77143,1.63489 3.99772,2.67013 1.22629,1.03525 2.30504,2.27224 3.00525,3.71627 1.08621,2.24007 1.19432,4.89103 0.51707,7.28668 -0.67726,2.39564 -2.10174,4.54169 -3.88512,6.27874 -3.56675,3.47411 -8.39429,5.2802 -13.09157,6.93147 -89.37472,47.49226 -209.264901,7.74559 -250.371131,-1.27014 -5.977158,-1.31096 -10.892445,-3.27881 -13.226678,-4.8073 -2.0376205,-1.33425 -6.3632892,-6.72305 -7.63361966,-8.80661 -1.1747536,-1.9268 -3.15799314,-4.33491 -3.38955684,-5.99306 -0.1894514,-1.35659 -0.6226649,-3.35253 -0.9462308,-4.67764 -0.3235659,-1.3251 -0.7277047,-2.65076 -1.4520366,-3.80659 -1.2825905,-2.046645 -3.4316795,-3.364145 -5.5201041,-4.577525 -2.088425,-1.213381 -4.263146,-2.458259 -5.660019,-4.428679 -1.010734,-1.425734 -1.537555,-3.129317 -2.040887,-4.802923 -0.503332,-1.673606 -1.012815,-3.379794 -1.99638,-4.824405 -1.015557,-1.491599 -2.476234,-2.61515 -3.938237,-3.67287 -1.462003,-1.057719 -2.969794,-2.093218 -4.136297,-3.469988 -1.245415,-1.469906 -2.053677,-3.289838 -2.405735,-5.18397 -0.352058,-1.894133 -0.256224,-3.85972 0.182418,-5.735693 0.877285,-3.751946 3.084203,-7.075339 5.681196,-9.921802 2.596994,-2.846464 5.600515,-5.286376 8.43556,-7.89583 2.835045,-2.609454 5.543348,-5.44298 7.3612196,-8.840343 2.8480927,-5.322709 1.386025,-11.989553 3.5225731,-17.599245 C 12.116057,-25.893635 155.85255,-18.5252 206.1922,8.3798494 Z"
       id="path11" />
  </g>
</svg>
