<?xml version="1.0" encoding="UTF-8" standalone="no"?>
<!-- Created with Inkscape (http://www.inkscape.org/) -->

<svg
   width="250mm"
   height="100mm"
   viewBox="0 0 250 99.999995"
   version="1.1"
   id="svg1"
   xmlns="http://www.w3.org/2000/svg"
   xmlns:svg="http://www.w3.org/2000/svg">
  <defs
     id="defs1" />
  <g
     id="layer1">
    <path
       style="fill:#820083;fill-opacity:1;stroke-width:0.264583"
       d="m 77.018633,-7.4534161 c 22.984547,5.0845479 46.988787,0.9696147 70.414617,3.2875112 7.59364,0.7513619 15.28589,2.2407416 21.89441,6.0559006 4.45368,2.5711498 8.39897,6.2891269 10.40372,11.0248443 0.75607,1.786019 1.22381,3.678663 1.85734,5.511734 0.63353,1.833071 1.45939,3.646755 2.80105,5.047272 1.00961,1.053901 2.27834,1.835434 3.62006,2.409729 1.34172,0.574296 2.75988,0.949125 4.18368,1.269765 2.84761,0.64128 5.80376,1.096241 8.34533,2.531685 2.94127,1.661187 5.05803,4.505214 6.52379,7.548593 1.46576,3.043378 2.35581,6.324252 3.4141,9.532153 1.18545,3.593354 2.65253,7.214556 5.2795,9.937888 1.77489,1.839995 3.99247,3.178359 6.15625,4.539927 2.16378,1.361569 4.33586,2.798867 5.95555,4.776843 1.44564,1.765423 2.3911,3.895962 3.0296,6.086605 0.6385,2.190643 0.98397,4.454052 1.34003,6.707898 0.35606,2.253846 0.72654,4.515022 1.41253,6.691261 0.68599,2.176239 1.70301,4.279184 3.22405,5.980074 2.13957,2.392553 5.11108,3.83292 7.90386,5.414842 1.39639,0.790961 2.77143,1.634894 3.99772,2.67014 1.22629,1.035241 2.30504,2.272231 3.00525,3.716261 1.08621,2.24007 1.19432,4.89103 0.51707,7.28668 -0.67726,2.39564 -2.10174,4.54169 -3.88512,6.27874 -3.56675,3.47411 -8.39429,5.2802 -13.09157,6.93147 -31.21131,10.97195 -63.55879,19.2418 -96.54906,21.72604 -32.99028,2.48425 -66.711552,-0.95697 -97.623323,-12.74646 -3.274243,-1.24877 -6.513845,-2.58921 -9.704967,-4.03726 -3.720947,-1.68847 -7.373898,-3.52223 -11.024846,-5.35715 -5.503464,-2.76598 -11.0272378,-5.54904 -16.0714284,-9.08385 -1.8322346,-1.28397 -3.60474283,-2.67157 -5.13368707,-4.30497 -1.52894423,-1.6334 -2.81317493,-3.52462 -3.56196593,-5.63293 -0.4565153,-1.28537 -0.7088695,-2.63227 -1.0324354,-3.95738 -0.3235659,-1.325099 -0.7277047,-2.650762 -1.4520366,-3.806589 -1.2825905,-2.046649 -3.4316796,-3.364157 -5.5201046,-4.577536 -2.088425,-1.213379 -4.263146,-2.458257 -5.660019,-4.428677 -1.010734,-1.425734 -1.537555,-3.129317 -2.040887,-4.802923 -0.503332,-1.673606 -1.012815,-3.379794 -1.99638,-4.824405 -1.015557,-1.491599 -2.476234,-2.61515 -3.938237,-3.67287 -1.462003,-1.057719 -2.969794,-2.093218 -4.136297,-3.469988 -1.245415,-1.469906 -2.053677,-3.289838 -2.405735,-5.18397 -0.352058,-1.894133 -0.256224,-3.85972 0.182418,-5.735693 0.877285,-3.751946 3.084203,-7.075339 5.681196,-9.921802 2.596994,-2.846464 5.600515,-5.286376 8.43556,-7.89583 2.835045,-2.609454 5.543348,-5.44298 7.36122,-8.840343 2.8480928,-5.322709 3.2867832,-11.567059 3.5225732,-17.599245 0.23579,-6.0321855 0.3611159,-12.234415 2.6886067,-17.804482 2.8985004,-6.9365865 9.0660281,-12.211874 16.0560011,-14.979148 6.989974,-2.767275 14.739078,-3.199107 22.201774,-2.290421 14.925391,1.817373 28.738535,8.74246 43.419243,11.9900659 z"
       id="path11"
       transform="translate(-0.43919676)" />
  </g>
</svg>
