<?xml version="1.0" encoding="UTF-8" standalone="no"?>
<!-- Created with Inkscape (http://www.inkscape.org/) -->

<svg
   width="100mm"
   height="100mm"
   viewBox="0 0 100 99.999995"
   version="1.1"
   id="svg1"
   xmlns="http://www.w3.org/2000/svg"
   xmlns:svg="http://www.w3.org/2000/svg">
  <defs
     id="defs1" />
  <g
     id="layer1">
    <path
       style="fill:#820083;fill-opacity:1;stroke-width:0.264583"
       d="m -16.873543,-16.094764 c 2.088634,2.49969 4.134644,5.047137 6.479364,7.3083591 2.3447206,2.2612225 5.0168084,4.244241 8.0578423,5.4116964 3.03284303,1.1643109 6.3125145,1.4784092 9.4940454,2.1353859 3.1815313,0.65697666 6.4295893,1.7494615 8.6774623,4.0948453 2.154695,2.2481643 3.126435,5.3766453 3.653579,8.4456963 0.527143,3.069051 0.683591,6.21222 1.53828,9.206625 1.039846,3.643103 3.116303,6.977742 5.895184,9.552873 2.778882,2.575131 6.249334,4.388034 9.939988,5.243928 3.109659,0.721156 6.328953,0.770691 9.518278,0.905777 3.189326,0.135087 6.421759,0.368272 9.432008,1.430557 3.216008,1.134895 6.082613,3.208101 8.234724,5.853684 2.15211,2.645583 3.59229,5.851673 4.225738,9.202708 0.614633,3.251503 0.480979,6.590366 0.620986,9.896489 0.140007,3.306122 0.588923,6.702096 2.234538,9.572984 1.821159,3.177135 4.940211,5.408285 8.199396,7.078172 3.259185,1.669887 6.741731,2.87856 9.97211,4.603513 4.649852,2.482922 8.771004,6.087242 11.42209,10.643312 3.47367,5.969729 4.22595,13.096309 4.67268,19.988659 4.2246,65.17841 -12.717596,131.65103 -48.133696,186.53065 -35.416099,54.87961 -89.189392,97.79687 -150.759789,119.59501 -61.570395,21.79813 -130.577375,22.23476 -192.223175,0.65079 -61.6458,-21.58397 -115.44708,-65.14036 -148.87845,-121.2511 -33.43137,-56.11075 -46.11909,-124.38397 -34.49267,-188.65604 11.62642,-64.272066 47.58701,-123.941278 99.34815,-163.776658 51.76113,-39.835381 118.88574,-59.332382 183.87721,-52.837702 64.99147,6.494674 127.114622,39.048139 168.994127,89.169786 z"
       id="path6" />
  </g>
</svg>
