<?xml version="1.0" encoding="UTF-8" standalone="no"?>
<!-- Created with Inkscape (http://www.inkscape.org/) -->

<svg
   width="100mm"
   height="100mm"
   viewBox="0 0 100 100"
   version="1.1"
   id="svg1"
   inkscape:export-filename="bitmap.svg"
   inkscape:export-xdpi="96"
   inkscape:export-ydpi="96"
   xmlns:inkscape="http://www.inkscape.org/namespaces/inkscape"
   xmlns:sodipodi="http://sodipodi.sourceforge.net/DTD/sodipodi-0.dtd"
   xmlns="http://www.w3.org/2000/svg"
   xmlns:svg="http://www.w3.org/2000/svg">
  <sodipodi:namedview
     id="namedview1"
     pagecolor="#505050"
     bordercolor="#eeeeee"
     borderopacity="1"
     inkscape:showpageshadow="0"
     inkscape:pageopacity="0"
     inkscape:pagecheckerboard="0"
     inkscape:deskcolor="#505050"
     inkscape:document-units="mm">
    <inkscape:page
       x="0"
       y="0"
       width="100"
       height="100"
       id="page2"
       margin="0"
       bleed="0" />
  </sodipodi:namedview>
  <defs
     id="defs1">
    <inkscape:path-effect
       effect="spiro"
       id="path-effect2"
       is_visible="true"
       lpeversion="1" />
  </defs>
  <g
     inkscape:label="Laag 1"
     inkscape:groupmode="layer"
     id="layer1">
    <path
       style="fill:#5c0064;fill-opacity:1;stroke-width:0.264583"
       d="m 53.021864,0.32449121 c 0.950914,0.0503057 1.903326,0.0745446 2.855521,0.0648983 1.154089,-0.0116916 2.347005,-0.066724 3.419937,0.35857098 0.548808,0.21753964 1.046832,0.55469341 1.607092,0.74076241 0.682522,0.2266735 1.416932,0.2168858 2.135764,0.2391928 0.948371,0.02943 1.900873,0.1198751 2.814252,0.3768039 0.913379,0.2569287 1.790051,0.6871895 2.48342,1.3348873 0.616192,0.5756043 1.072076,1.305468 1.687354,1.8820489 0.740815,0.6942217 1.686022,1.1388497 2.659613,1.4267237 0.973591,0.2878739 1.983439,0.4284374 2.986534,0.5851219 1.101699,0.1720865 2.209057,0.3671135 3.247301,0.7738119 1.038243,0.4066983 2.013506,1.0422907 2.65844,1.9519137 0.734703,1.036235 0.988179,2.339032 1.622454,3.439607 0.88121,1.529048 2.417116,2.546559 3.909988,3.487756 1.492871,0.941196 3.047723,1.910527 4.007599,3.391458 0.911814,1.406779 1.184938,3.12013 1.443372,4.776524 0.258434,1.656395 0.544981,3.370078 1.477049,4.763519 0.667898,0.998507 1.622352,1.762408 2.507026,2.575092 0.884674,0.812684 1.738074,1.731121 2.100748,2.876359 0.340939,1.076605 0.212348,2.243893 -0.012,3.350683 -0.224349,1.10679 -0.542197,2.204931 -0.572083,3.333835 -0.05359,2.024388 0.818487,3.957515 1.038371,5.97064 0.328109,3.003972 -0.803556,5.956194 -1.168167,8.955955 -0.374074,3.077616 0.06139,6.223374 -0.454287,9.280451 -0.492976,2.922473 -1.869466,5.688072 -3.893897,7.852685 -1.237389,1.323072 -2.696657,2.41433 -4.105507,3.553099 -1.408849,1.138768 -2.790434,2.349343 -3.812078,3.845302 -0.90307,1.322335 -1.496734,2.826025 -2.115636,4.302867 -0.618902,1.476843 -1.282335,2.960394 -2.297444,4.198804 -1.101596,1.343921 -2.580057,2.345198 -4.165502,3.056534 -1.585446,0.711336 -3.281224,1.145351 -4.98515,1.486341 -3.462428,0.692902 -7.05621,1.033315 -10.253921,2.531033 -1.391134,0.651568 -2.710682,1.522833 -4.218387,1.81715 -1.485788,0.290039 -3.019005,-0.0085 -4.489859,-0.366623 -1.470854,-0.358159 -2.952884,-0.779891 -4.466099,-0.736647 -2.36007,0.06744 -4.583378,1.26026 -6.944111,1.297964 -1.93768,0.03095 -3.801087,-0.720079 -5.528606,-1.598283 C 34.473446,96.623127 32.803072,95.598897 30.956461,95.011027 29.42098,94.522206 27.80624,94.349117 26.222942,94.049422 24.639644,93.749727 23.040686,93.302689 21.740911,92.3502 20.516579,91.452996 19.639703,90.16857 18.832392,88.883187 18.025081,87.597803 17.24918,86.268233 16.159662,85.211392 15.008321,84.094582 13.565095,83.338493 12.174103,82.539751 10.78311,81.741009 9.390855,80.854653 8.4367716,79.565245 7.4126418,78.181171 6.9830202,76.455461 6.638785,74.768451 6.2945498,73.081441 6.0016462,71.349963 5.1918594,69.830507 4.2552527,68.07309 2.6710007,66.688469 1.9469473,64.833343 1.4751277,63.624475 1.4040138,62.297206 1.4426805,61.000102 1.4813471,59.702997 1.6240422,58.406428 1.5575578,57.110452 1.4696211,55.396307 1.0167114,53.6862 1.2330666,51.983491 1.373195,50.880685 1.7885649,49.834984 2.1705315,48.790992 2.5524982,47.747 2.9082312,46.670173 2.9204208,45.558567 2.9352886,44.202732 2.4392872,42.897733 1.9109147,41.649001 1.3825423,40.400268 0.80738451,39.14429 0.64898243,37.797658 0.46864619,36.264556 0.84436597,34.713308 1.4153075,33.279101 1.986249,31.844894 2.7505446,30.496569 3.395859,29.094252 c 1.1489891,-2.49684 1.9567531,-5.22481 3.762979,-7.296508 1.6507149,-1.893331 3.973573,-3.046893 5.919808,-4.634889 1.864568,-1.521361 3.367586,-3.428445 4.968834,-5.224874 1.601248,-1.796429 3.360934,-3.528448 5.539973,-4.5496931 2.868617,-1.344428 6.189449,-1.3350812 9.177999,-2.3862792 3.161555,-1.1120509 5.838234,-3.3702568 9.040325,-4.35954889 3.595328,-1.11078343 7.458335,-0.51676294 11.216087,-0.3179686 z"
       id="path2"
       inkscape:path-effect="#path-effect2"
       inkscape:original-d="m 53.021864,0.32449121 c 3.738695,-0.10598954 1.903683,0.086531 2.855521,0.0648983 0.951841,-0.0216329 2.316667,0.22877449 3.419937,0.35857098 1.10327,0.12979645 1.034836,0.58082291 1.607092,0.74076241 0.49824,0.1392524 1.184721,0.2842688 2.135764,0.2391928 0.940534,-0.044578 3.567051,1.1925052 5.297672,1.7116912 1.730618,0.5191861 1.124902,1.2546994 1.687354,1.8820489 0.562451,0.6273498 3.764097,1.3412303 5.646147,2.0118456 1.882047,0.6706151 3.937159,1.8171507 5.905741,2.7257256 1.968579,0.908576 1.081635,2.293072 1.622454,3.439607 0.540819,1.146536 5.27839,4.586143 7.917587,6.879214 2.639195,2.293071 1.946947,6.360029 2.920421,9.540043 0.973473,3.180014 3.071849,3.677565 4.607774,5.451451 1.535922,1.773886 -0.38939,4.369816 -0.584084,6.684518 -0.194696,2.314704 0.692248,4.023693 1.038371,5.97064 0.346125,1.946947 -0.778777,5.970638 -1.168167,8.955955 -0.38939,2.985321 -0.346126,6.186967 -0.454287,9.280451 -0.108165,3.093482 -2.574298,5.27839 -3.893897,7.852685 -1.319596,2.574298 -5.300022,4.889003 -7.917585,7.398401 -2.617562,2.509398 -2.898788,5.66778 -4.41308,8.501671 -1.514293,2.833888 -6.100435,3.028585 -9.150652,4.542875 -3.050217,1.514292 -6.879214,1.687356 -10.253921,2.531033 -3.374711,0.843677 -2.768992,1.211434 -4.218387,1.81715 -1.449393,0.605716 -5.970638,-0.735512 -8.955958,-1.10327 -2.985318,-0.367758 -4.672672,0.822045 -6.944111,1.297964 -2.271438,0.475922 -7.138808,-2.68246 -10.773109,-4.088588 -3.6343,-1.406128 -6.122067,-1.773886 -9.21555,-2.660827 C 18.647428,91.463256 17.998446,87.590994 16.159662,85.211392 14.320879,82.831791 10.967803,81.447295 8.4367716,79.565245 5.9057402,77.683195 6.3167622,73.032156 5.1918594,69.830507 4.0669564,66.628861 3.0285846,66.585596 1.9469473,64.833343 0.86530989,63.081092 1.6440888,59.598218 1.5575578,57.110452 1.4710268,54.622686 1.3844958,53.735745 1.2330666,51.983491 1.0816374,50.23124 2.401235,47.656943 2.9204208,45.558567 3.4396068,43.460191 1.3628631,40.458487 0.64898243,37.797658 -0.06489824,35.13683 2.4802335,31.964794 3.395859,29.094252 4.3114846,26.223709 5.9351049,24.229913 7.158838,21.797744 8.3825709,19.365575 11.04419,18.677225 13.078646,17.162855 15.113102,15.648486 20.115111,10.646477 23.587453,7.3882879 27.059797,4.130099 29.706117,5.7974351 32.765452,5.0020087 35.824784,4.2065821 38.792335,2.1262361 41.805777,0.64245981 44.81922,-0.84131644 49.28317,0.43048076 53.021864,0.32449121 Z"
       transform="matrix(1.0146604,0,0,1,-0.61228917,0.04425907)"
       sodipodi:nodetypes="ssssssssssssssssssssssssssssssssssssssssss" />
  </g>
</svg>
