<?xml version="1.0" encoding="UTF-8" standalone="no"?>
<!-- Created with Inkscape (http://www.inkscape.org/) -->

<svg
   width="200mm"
   height="100mm"
   viewBox="0 0 200 99.999995"
   version="1.1"
   id="svg1"
   xmlns="http://www.w3.org/2000/svg"
   xmlns:svg="http://www.w3.org/2000/svg">
  <defs
     id="defs1" />
  <path
     style="fill:#800080;stroke-width:0.264583"
     d="m 151.21072,1.5732907 c 1.00825,0.033933 2.02214,0.047499 3.01517,0.2252639 0.99304,0.177765 1.97571,0.5308252 2.75356,1.1732168 0.85259,0.7041165 1.4039,1.7058383 1.83832,2.7226806 0.43442,1.0168424 0.77453,2.0776416 1.30826,3.046052 1.27387,2.311321 3.56448,3.919006 6.00339,4.927301 2.43891,1.008296 5.05656,1.487975 7.6318,2.065102 3.12938,0.701313 6.26286,1.570735 9.04875,3.159348 2.78589,1.588612 5.22256,3.971588 6.33454,6.979637 0.7995,2.162732 0.87973,4.514517 0.95377,6.819104 0.074,2.304588 0.15981,4.657008 0.96914,6.816081 0.71089,1.896465 1.95029,3.553073 3.3337,5.032306 1.3834,1.479233 2.92125,2.805089 4.35794,4.23263 8.08918,8.037682 12.76406,19.433258 12.53938,30.834515 -0.22468,11.401258 -5.37574,22.642322 -13.93786,30.174202 -6.92104,6.08827 -15.80681,9.68433 -24.90604,11.15807 -9.09922,1.47373 -18.4305,0.91534 -27.52509,-0.58672 -18.18919,-3.00413 -35.68886,-9.73883 -54.028209,-11.62021 C 80.144388,107.62836 68.854646,108.1241 59.085807,103.48757 54.602764,101.35981 50.574709,98.19737 45.80024,96.844785 43.241896,96.120018 40.565058,95.945679 37.942334,95.507814 35.31961,95.069948 32.657325,94.32382 30.591765,92.649343 28.81957,91.212687 27.613469,89.191781 26.685765,87.107549 25.758061,85.023318 25.072464,82.837028 24.123791,80.762257 22.258674,76.683203 19.333921,73.044118 15.558097,70.623273 11.726438,68.16663 7.0956012,66.978638 3.6710117,63.98049 0.66167419,61.345885 -1.1142976,57.542437 -2.0766748,53.660288 -3.0390519,49.778138 -3.2648282,45.758588 -3.6710117,41.77961 -4.4214058,34.428741 -5.7989724,27.146238 -6.3433887,19.777251 -6.8878049,12.408263 -6.5666588,4.838857 -4.0206318,-2.097721 -0.20551108,-12.491909 8.4845295,-20.705187 18.605544,-25.195104 c 10.121014,-4.489917 21.554672,-5.482314 32.552553,-4.201337 21.995762,2.561954 41.895173,13.687094 62.468453,21.8796077 12.03562,4.7927186 24.63673,8.6543769 37.58417,9.090124 z"
     id="path1" />
</svg>
